SerifasText-500.ufo
<glyph name="C" format="1">
  <advance width="708"/>
  <unicode hex="0043"/>
  <outline>
    <contour>
      <point x="659" y="94" type="line"/>
      <point x="598" y="21"/>
      <point x="510" y="-18"/>
      <point x="381" y="-18" type="curve" smooth="yes"/>
      <point x="159" y="-18"/>
      <point x="60" y="107"/>
      <point x="60" y="381" type="curve" smooth="yes"/>
      <point x="60" y="650"/>
      <point x="161" y="760"/>
      <point x="400" y="760" type="curve" smooth="yes"/>
      <point x="502" y="760"/>
      <point x="591" y="738"/>
      <point x="644" y="705" type="curve"/>
      <point x="618" y="457" type="line"/>
      <point x="559" y="457" type="line"/>
      <point x="522" y="684" type="line"/>
      <point x="596" y="606" type="line"/>
      <point x="540" y="640"/>
      <point x="472" y="662"/>
      <point x="390" y="662" type="curve" smooth="yes"/>
      <point x="257" y="662"/>
      <point x="176" y="588"/>
      <point x="174" y="429" type="curve" smooth="yes"/>
      <point x="171" y="174"/>
      <point x="227" y="82"/>
      <point x="381" y="81" type="curve" smooth="yes"/>
      <point x="486" y="81"/>
      <point x="546" y="113"/>
      <point x="593" y="169" type="curve"/>
    </contour>
  </outline>
</glyph>
<glyph name="D" format="1">
  <advance width="754"/>
  <unicode hex="0044"/>
  <outline>
    <contour>
      <point x="317" y="-1" type="line" smooth="yes"/>
      <point x="591" y="-2"/>
      <point x="699" y="104"/>
      <point x="699" y="370" type="curve" smooth="yes"/>
      <point x="699" y="638"/>
      <point x="595" y="740"/>
      <point x="327" y="740" type="curve" smooth="yes"/>
      <point x="52" y="740" type="line"/>
      <point x="52" y="650" type="line"/>
      <point x="189" y="650" type="line"/>
      <point x="126" y="686" type="line"/>
      <point x="126" y="73" type="line"/>
      <point x="160" y="99" type="line"/>
      <point x="52" y="72" type="line"/>
      <point x="52" y="0" type="line"/>
    </contour>
    <contour>
      <point x="275" y="651" type="line" smooth="yes"/>
      <point x="502" y="654"/>
      <point x="588" y="604"/>
      <point x="588" y="352" type="curve" smooth="yes"/>
      <point x="588" y="132"/>
      <point x="502" y="88"/>
      <point x="274" y="92" type="curve" smooth="yes"/>
      <point x="193" y="93" type="line"/>
      <point x="227" y="63" type="line"/>
      <point x="227" y="694" type="line"/>
      <point x="204" y="650" type="line"/>
    </contour>
  </outline>
</glyph>
<glyph name="E" format="1">
  <advance width="668"/>
  <unicode hex="0045"/>
  <outline>
    <contour>
      <point x="179" y="322" type="line"/>
      <point x="179" y="425" type="line"/>
      <point x="470" y="404" type="line"/>
      <point x="470" y="335" type="line"/>
    </contour>
    <contour>
      <point x="505" y="58" type="line"/>
      <point x="555" y="235" type="line"/>
      <point x="611" y="235" type="line"/>
      <point x="611" y="0" type="line"/>
      <point x="50" y="0" type="line"/>
      <point x="50" y="70" type="line"/>
      <point x="153" y="98" type="line"/>
      <point x="124" y="60" type="line"/>
      <point x="124" y="676" type="line"/>
      <point x="154" y="646" type="line"/>
      <point x="50" y="646" type="line"/>
      <point x="50" y="740" type="line"/>
      <point x="597" y="740" type="line"/>
      <point x="589" y="516" type="line"/>
      <point x="530" y="516" type="line"/>
      <point x="503" y="684" type="line"/>
      <point x="536" y="652" type="line"/>
      <point x="193" y="652" type="line"/>
      <point x="228" y="689" type="line"/>
      <point x="228" y="62" type="line"/>
      <point x="194" y="88" type="line"/>
      <point x="537" y="88" type="line"/>
    </contour>
  </outline>
</glyph>
<glyph name="F" format="1">
  <advance width="639"/>
  <unicode hex="0046"/>
  <outline>
    <contour>
      <point x="179" y="310" type="line"/>
      <point x="179" y="413" type="line"/>
      <point x="480" y="392" type="line"/>
      <point x="480" y="323" type="line"/>
    </contour>
    <contour>
      <point x="393" y="0" type="line"/>
      <point x="50" y="0" type="line"/>
      <point x="50" y="76" type="line"/>
      <point x="153" y="104" type="line"/>
      <point x="124" y="66" type="line"/>
      <point x="124" y="676" type="line"/>
      <point x="154" y="646" type="line"/>
      <point x="50" y="646" type="line"/>
      <point x="50" y="740" type="line"/>
      <point x="607" y="740" type="line"/>
      <point x="599" y="506" type="line"/>
      <point x="537" y="506" type="line"/>
      <point x="506" y="684" type="line"/>
      <point x="543" y="652" type="line"/>
      <point x="193" y="652" type="line"/>
      <point x="228" y="689" type="line"/>
      <point x="228" y="56" type="line"/>
      <point x="198" y="104" type="line"/>
      <point x="393" y="76" type="line"/>
    </contour>
  </outline>
</glyph>
<glyph name="G" format="1">
  <advance width="758"/>
  <unicode hex="0047"/>
  <outline>
    <contour>
      <point x="574" y="83" type="line"/>
      <point x="574" y="315" type="line"/>
      <point x="603" y="274" type="line"/>
      <point x="406" y="282" type="line"/>
      <point x="406" y="356" type="line"/>
      <point x="677" y="366" type="line"/>
      <point x="677" y="148" type="line"/>
      <point x="638" y="48"/>
      <point x="543" y="-18"/>
      <point x="384" y="-18" type="curve" smooth="yes"/>
      <point x="161" y="-18"/>
      <point x="62" y="107"/>
      <point x="62" y="381" type="curve" smooth="yes"/>
      <point x="62" y="651"/>
      <point x="163" y="760"/>
      <point x="403" y="760" type="curve"/>
      <point x="505" y="760"/>
      <point x="592" y="738"/>
      <point x="645" y="705" type="curve"/>
      <point x="619" y="505" type="line"/>
      <point x="561" y="505" type="line"/>
      <point x="516" y="682" type="line"/>
      <point x="583" y="605" type="line"/>
      <point x="528" y="643"/>
      <point x="473" y="662"/>
      <point x="392" y="662" type="curve" smooth="yes"/>
      <point x="251" y="662"/>
      <point x="179" y="584"/>
      <point x="177" y="427" type="curve" smooth="yes"/>
      <point x="173" y="158"/>
      <point x="244" y="76"/>
      <point x="384" y="76" type="curve" smooth="yes"/>
      <point x="474" y="76"/>
      <point x="544" y="112"/>
      <point x="585" y="172" type="curve"/>
    </contour>
  </outline>
</glyph>
<glyph name="H" format="1">
  <advance width="823"/>
  <unicode hex="0048"/>
  <outline>
    <contour>
      <point x="192" y="331" type="line"/>
      <point x="192" y="416" type="line"/>
      <point x="626" y="416" type="line"/>
      <point x="626" y="331" type="line"/>
    </contour>
    <contour>
      <point x="228" y="690" type="line"/>
      <point x="228" y="65" type="line"/>
      <point x="181" y="94" type="line"/>
      <point x="307" y="94" type="line"/>
      <point x="307" y="0" type="line"/>
      <point x="50" y="0" type="line"/>
      <point x="50" y="72" type="line"/>
      <point x="158" y="101" type="line"/>
      <point x="124" y="73" type="line"/>
      <point x="124" y="682" type="line"/>
      <point x="187" y="646" type="line"/>
      <point x="50" y="646" type="line"/>
      <point x="50" y="740" type="line"/>
      <point x="307" y="740" type="line"/>
      <point x="307" y="668" type="line"/>
      <point x="204" y="639" type="line"/>
    </contour>
    <contour>
      <point x="699" y="685" type="line"/>
      <point x="699" y="61" type="line"/>
      <point x="636" y="94" type="line"/>
      <point x="773" y="94" type="line"/>
      <point x="773" y="0" type="line"/>
      <point x="516" y="0" type="line"/>
      <point x="516" y="72" type="line"/>
      <point x="619" y="101" type="line"/>
      <point x="595" y="73" type="line"/>
      <point x="595" y="678" type="line"/>
      <point x="642" y="646" type="line"/>
      <point x="516" y="646" type="line"/>
      <point x="516" y="740" type="line"/>
      <point x="773" y="740" type="line"/>
      <point x="773" y="668" type="line"/>
      <point x="665" y="639" type="line"/>
    </contour>
  </outline>
</glyph>
<glyph name="I" format="1">
  <advance width="424"/>
  <unicode hex="0049"/>
  <outline>
    <contour>
      <point x="263" y="43" type="line"/>
      <point x="219" y="94" type="line"/>
      <point x="369" y="94" type="line"/>
      <point x="369" y="0" type="line"/>
      <point x="55" y="0" type="line"/>
      <point x="55" y="72" type="line"/>
      <point x="184" y="101" type="line"/>
      <point x="162" y="55" type="line"/>
      <point x="162" y="678" type="line"/>
      <point x="201" y="646" type="line"/>
      <point x="55" y="646" type="line"/>
      <point x="55" y="740" type="line"/>
      <point x="369" y="740" type="line"/>
      <point x="369" y="668" type="line"/>
      <point x="240" y="639" type="line"/>
      <point x="263" y="685" type="line"/>
    </contour>
  </outline>
</glyph>
<glyph name="L" format="1">
  <advance width="658"/>
  <unicode hex="004C"/>
  <outline>
    <contour>
      <point x="193" y="91" type="line"/>
      <point x="559" y="91" type="line"/>
      <point x="494" y="54" type="line"/>
      <point x="548" y="303" type="line"/>
      <point x="608" y="303" type="line"/>
      <point x="608" y="3" type="line"/>
      <point x="52" y="0" type="line"/>
      <point x="52" y="67" type="line"/>
      <point x="160" y="96" type="line"/>
      <point x="126" y="68" type="line"/>
      <point x="126" y="682" type="line"/>
      <point x="189" y="646" type="line"/>
      <point x="52" y="646" type="line"/>
      <point x="52" y="740" type="line"/>
      <point x="411" y="740" type="line"/>
      <point x="413" y="665" type="line"/>
      <point x="207" y="640" type="line"/>
      <point x="230" y="690" type="line"/>
      <point x="230" y="60" type="line"/>
    </contour>
  </outline>
</glyph>
<glyph name="N" format="1">
  <advance width="823"/>
  <unicode hex="004E"/>
  <outline>
    <contour>
      <point x="585" y="-2" type="line"/>
      <point x="200" y="660" type="line"/>
      <point x="221" y="673" type="line"/>
      <point x="221" y="65" type="line"/>
      <point x="186" y="94" type="line"/>
      <point x="319" y="94" type="line"/>
      <point x="319" y="0" type="line"/>
      <point x="50" y="0" type="line"/>
      <point x="50" y="72" type="line"/>
      <point x="158" y="101" type="line"/>
      <point x="124" y="73" type="line"/>
      <point x="124" y="682" type="line"/>
      <point x="183" y="646" type="line"/>
      <point x="50" y="646" type="line"/>
      <point x="50" y="740" type="line"/>
      <point x="278" y="740" type="line"/>
      <point x="636" y="128" type="line"/>
      <point x="617" y="125" type="line"/>
      <point x="617" y="678" type="line"/>
      <point x="660" y="646" type="line"/>
      <point x="534" y="646" type="line"/>
      <point x="534" y="740" type="line"/>
      <point x="803" y="740" type="line"/>
      <point x="803" y="668" type="line"/>
      <point x="671" y="639" type="line"/>
      <point x="705" y="685" type="line"/>
      <point x="705" y="0" type="line"/>
    </contour>
  </outline>
</glyph>
<glyph name="O" format="1">
  <advance width="758"/>
  <unicode hex="004F"/>
  <outline>
    <contour>
      <point x="374" y="-18" type="curve" smooth="yes"/>
      <point x="153" y="-18"/>
      <point x="55" y="105"/>
      <point x="55" y="375" type="curve" smooth="yes"/>
      <point x="55" y="650"/>
      <point x="157" y="759"/>
      <point x="384" y="759" type="curve" smooth="yes"/>
      <point x="606" y="759"/>
      <point x="704" y="634"/>
      <point x="704" y="364" type="curve" smooth="yes"/>
      <point x="704" y="89"/>
      <point x="602" y="-18"/>
    </contour>
    <contour>
      <point x="385" y="663" type="curve" smooth="yes"/>
      <point x="230" y="663"/>
      <point x="170" y="564"/>
      <point x="167" y="415" type="curve" smooth="yes"/>
      <point x="163" y="164"/>
      <point x="227" y="76"/>
      <point x="374" y="76" type="curve" smooth="yes"/>
      <point x="529" y="76"/>
      <point x="589" y="175"/>
      <point x="592" y="324" type="curve" smooth="yes"/>
      <point x="596" y="575"/>
      <point x="532" y="663"/>
    </contour>
  </outline>
</glyph>
<glyph name="P" format="1">
  <advance width="684"/>
  <unicode hex="0050"/>
  <outline>
    <contour>
      <point x="351" y="651" type="curve"/>
      <point x="207" y="651" type="line"/>
      <point x="227" y="690" type="line"/>
      <point x="227" y="65" type="line"/>
      <point x="184" y="94" type="line"/>
      <point x="367" y="94" type="line"/>
      <point x="367" y="0" type="line"/>
      <point x="50" y="0" type="line"/>
      <point x="50" y="72" type="line"/>
      <point x="158" y="101" type="line"/>
      <point x="124" y="73" type="line"/>
      <point x="124" y="682" type="line"/>
      <point x="187" y="646" type="line"/>
      <point x="50" y="646" type="line"/>
      <point x="50" y="740" type="line"/>
      <point x="337" y="740" type="line"/>
      <point x="553" y="740"/>
      <point x="638" y="677"/>
      <point x="638" y="497" type="curve" smooth="yes"/>
      <point x="638" y="307"/>
      <point x="560" y="238"/>
      <point x="312" y="238" type="curve" smooth="yes"/>
      <point x="203" y="238" type="line"/>
      <point x="203" y="328" type="line"/>
      <point x="322" y="328" type="line" smooth="yes"/>
      <point x="493" y="328"/>
      <point x="529" y="378"/>
      <point x="529" y="497" type="curve" smooth="yes"/>
      <point x="529" y="615"/>
      <point x="474" y="651"/>
    </contour>
  </outline>
</glyph>
<glyph name="T" format="1">
  <advance width="756"/>
  <unicode hex="0054"/>
  <outline>
    <contour>
      <point x="653" y="647" type="line"/>
      <point x="616" y="677" type="line"/>
      <point x="632" y="445" type="line"/>
      <point x="707" y="445" type="line"/>
      <point x="720" y="740" type="line"/>
      <point x="36" y="740" type="line"/>
      <point x="49" y="445" type="line"/>
      <point x="124" y="445" type="line"/>
      <point x="140" y="677" type="line"/>
      <point x="103" y="647" type="line"/>
    </contour>
    <contour>
      <point x="323" y="683" type="line"/>
      <point x="323" y="60" type="line"/>
      <point x="353" y="104" type="line"/>
      <point x="187" y="69" type="line"/>
      <point x="187" y="1" type="line"/>
      <point x="569" y="1" type="line"/>
      <point x="569" y="69" type="line"/>
      <point x="399" y="104" type="line"/>
      <point x="429" y="60" type="line"/>
      <point x="429" y="683" type="line"/>
    </contour>
  </outline>
</glyph>
<glyph name="U" format="1">
  <advance width="816"/>
  <unicode hex="0055"/>
  <outline>
    <contour>
      <point x="615" y="87" type="line"/>
      <point x="630" y="155" type="line"/>
      <point x="602" y="169" type="line"/>
      <point x="550" y="113"/>
      <point x="467" y="92"/>
      <point x="380" y="92" type="curve"/>
      <point x="247" y="92"/>
      <point x="203" y="132"/>
      <point x="203" y="240" type="curve"/>
      <point x="203" y="675" type="line"/>
      <point x="174" y="637" type="line"/>
      <point x="286" y="668" type="line"/>
      <point x="286" y="740" type="line"/>
      <point x="24" y="740" type="line"/>
      <point x="24" y="646" type="line"/>
      <point x="128" y="646" type="line"/>
      <point x="98" y="676" type="line"/>
      <point x="98" y="229" type="line"/>
      <point x="98" y="86"/>
      <point x="174" y="-18"/>
      <point x="325" y="-18" type="curve" smooth="yes"/>
      <point x="478" y="-18"/>
      <point x="522" y="13"/>
      <point x="546" y="87" type="curve"/>
    </contour>
    <contour>
      <point x="749" y="94" type="line"/>
      <point x="642" y="94" type="line"/>
      <point x="672" y="64" type="line"/>
      <point x="672" y="678" type="line"/>
      <point x="646" y="640" type="line"/>
      <point x="749" y="668" type="line"/>
      <point x="749" y="740" type="line"/>
      <point x="484" y="740" type="line"/>
      <point x="484" y="646" type="line"/>
      <point x="597" y="646" type="line"/>
      <point x="567" y="676" type="line"/>
      <point x="567" y="0" type="line"/>
      <point x="749" y="0" type="line"/>
    </contour>
  </outline>
</glyph>
<glyph name="a" format="1">
  <advance width="578"/>
  <unicode hex="0061"/>
  <outline>
    <contour>
      <point x="130" y="163" type="curve" smooth="yes"/>
      <point x="130" y="234"/>
      <point x="169" y="254"/>
      <point x="255" y="254" type="curve" smooth="yes"/>
      <point x="338" y="254"/>
      <point x="394" y="195"/>
      <point x="394" y="195" type="curve"/>
      <point x="416" y="230" type="line"/>
      <point x="357" y="314"/>
      <point x="299" y="329"/>
      <point x="229" y="329" type="curve" smooth="yes"/>
      <point x="98" y="329"/>
      <point x="36" y="277"/>
      <point x="36" y="154" type="curve" smooth="yes"/>
      <point x="36" y="39"/>
      <point x="96" y="-18"/>
      <point x="206" y="-18" type="curve" smooth="yes"/>
      <point x="307" y="-18"/>
      <point x="353" y="17"/>
      <point x="353" y="101" type="curve"/>
      <point x="329" y="66" type="line"/>
      <point x="425" y="66" type="line"/>
      <point x="410" y="162" type="line"/>
      <point x="385" y="123"/>
      <point x="311" y="65"/>
      <point x="240" y="65" type="curve" smooth="yes"/>
      <point x="169" y="65"/>
      <point x="130" y="97"/>
    </contour>
    <contour>
      <point x="533" y="72" type="line"/>
      <point x="434" y="123" type="line"/>
      <point x="473" y="73" type="line"/>
      <point x="473" y="333" type="line" smooth="yes"/>
      <point x="473" y="488"/>
      <point x="423" y="559"/>
      <point x="282" y="558" type="curve" smooth="yes"/>
      <point x="239" y="558"/>
      <point x="168" y="551"/>
      <point x="62" y="516" type="curve"/>
      <point x="88" y="436" type="line"/>
      <point x="136" y="452"/>
      <point x="197" y="470"/>
      <point x="254" y="470" type="curve" smooth="yes"/>
      <point x="350" y="470"/>
      <point x="379" y="421"/>
      <point x="379" y="305" type="curve" smooth="yes"/>
      <point x="378" y="0" type="line"/>
      <point x="533" y="0" type="line"/>
    </contour>
  </outline>
</glyph>
<glyph name="b" format="1">
  <advance width="620"/>
  <unicode hex="0062"/>
  <outline>
    <contour>
      <point x="97" y="0" type="line"/>
      <point x="97" y="666" type="line"/>
      <point x="158" y="651" type="line"/>
      <point x="20" y="651" type="line"/>
      <point x="20" y="760" type="line"/>
      <point x="195" y="760" type="line"/>
      <point x="195" y="94" type="line"/>
      <point x="182" y="87" type="line"/>
      <point x="160" y="0" type="line"/>
    </contour>
    <contour>
      <point x="475" y="276" type="curve"/>
      <point x="475" y="394"/>
      <point x="433" y="445"/>
      <point x="355" y="445" type="curve" smooth="yes"/>
      <point x="273" y="445"/>
      <point x="235" y="421"/>
      <point x="164" y="382" type="curve"/>
      <point x="164" y="456" type="line"/>
      <point x="299" y="468" type="line"/>
      <point x="225" y="426" type="line"/>
      <point x="225" y="508"/>
      <point x="280" y="554"/>
      <point x="386" y="554" type="curve" smooth="yes"/>
      <point x="490" y="554"/>
      <point x="576" y="513"/>
      <point x="576" y="265" type="curve" smooth="yes"/>
      <point x="576" y="44"/>
      <point x="480" y="-11"/>
      <point x="353" y="-11" type="curve" smooth="yes"/>
      <point x="242" y="-11"/>
      <point x="156" y="70"/>
      <point x="145" y="142" type="curve"/>
      <point x="171" y="171" type="line"/>
      <point x="204" y="109"/>
      <point x="245" y="72"/>
      <point x="335" y="72" type="curve" smooth="yes"/>
      <point x="413" y="72"/>
      <point x="475" y="119"/>
    </contour>
  </outline>
</glyph>
<glyph name="c" format="1">
  <advance width="556"/>
  <unicode hex="0063"/>
  <outline>
    <contour>
      <point x="512" y="62" type="curve"/>
      <point x="470" y="133" type="line"/>
      <point x="432" y="104"/>
      <point x="379" y="68"/>
      <point x="293" y="68" type="curve" smooth="yes"/>
      <point x="193" y="68"/>
      <point x="153" y="150"/>
      <point x="153" y="284" type="curve" smooth="yes"/>
      <point x="153" y="425"/>
      <point x="201" y="472"/>
      <point x="296" y="472" type="curve" smooth="yes"/>
      <point x="360" y="472"/>
      <point x="386" y="456"/>
      <point x="400" y="439" type="curve" smooth="yes"/>
      <point x="416" y="421"/>
      <point x="421" y="372"/>
      <point x="418" y="327" type="curve"/>
      <point x="498" y="327" type="line"/>
      <point x="510" y="522"/>
      <point x="449" y="555"/>
      <point x="288" y="555" type="curve" smooth="yes"/>
      <point x="134" y="555"/>
      <point x="45" y="472"/>
      <point x="45" y="270" type="curve" smooth="yes"/>
      <point x="45" y="66"/>
      <point x="129" y="-11"/>
      <point x="285" y="-11" type="curve" smooth="yes"/>
      <point x="373" y="-11"/>
      <point x="439" y="7"/>
    </contour>
  </outline>
</glyph>
<glyph name="d" format="1">
  <advance width="647"/>
  <unicode hex="0064"/>
  <outline>
    <contour>
      <point x="304" y="760" type="line"/>
      <point x="518" y="760" type="line"/>
      <point x="518" y="71" type="line"/>
      <point x="463" y="102" type="line"/>
      <point x="575" y="72" type="line"/>
      <point x="575" y="0" type="line"/>
      <point x="421" y="0" type="line"/>
      <point x="421" y="687" type="line"/>
      <point x="449" y="648" type="line"/>
      <point x="304" y="687" type="line"/>
    </contour>
    <contour>
      <point x="243" y="-11" type="curve" smooth="yes"/>
      <point x="140" y="-11"/>
      <point x="47" y="28"/>
      <point x="47" y="284" type="curve"/>
      <point x="47" y="507"/>
      <point x="146" y="555"/>
      <point x="270" y="555" type="curve" smooth="yes"/>
      <point x="381" y="555"/>
      <point x="463" y="468"/>
      <point x="474" y="396" type="curve"/>
      <point x="435" y="382" type="line"/>
      <point x="421" y="435"/>
      <point x="360" y="468"/>
      <point x="283" y="468" type="curve" smooth="yes"/>
      <point x="206" y="468"/>
      <point x="148" y="421"/>
      <point x="148" y="311" type="curve" smooth="yes"/>
      <point x="148" y="137"/>
      <point x="183" y="90"/>
      <point x="279" y="90" type="curve" smooth="yes"/>
      <point x="369" y="90"/>
      <point x="445" y="150"/>
      <point x="475" y="200" type="curve"/>
      <point x="456" y="66" type="line"/>
      <point x="341" y="66" type="line"/>
      <point x="413" y="121" type="line"/>
      <point x="413" y="31"/>
      <point x="349" y="-11"/>
    </contour>
  </outline>
</glyph>
<glyph name="e" format="1">
  <advance width="556"/>
  <unicode hex="0065"/>
  <outline>
    <contour>
      <point x="413" y="308" type="curve"/>
      <point x="448" y="312" type="line"/>
      <point x="258" y="312" type="line" smooth="yes"/>
      <point x="193" y="312"/>
      <point x="175" y="313"/>
      <point x="175" y="272" type="curve"/>
      <point x="110" y="272" type="line"/>
      <point x="110" y="238" type="line"/>
      <point x="504" y="238" type="line"/>
      <point x="510" y="381"/>
      <point x="499" y="462"/>
      <point x="452" y="508" type="curve" smooth="yes"/>
      <point x="415" y="543"/>
      <point x="366" y="554"/>
      <point x="282" y="554" type="curve" smooth="yes"/>
      <point x="129" y="554"/>
      <point x="46" y="470"/>
      <point x="46" y="270" type="curve" smooth="yes"/>
      <point x="46" y="69"/>
      <point x="124" y="-11"/>
      <point x="284" y="-11" type="curve" smooth="yes"/>
      <point x="370" y="-11"/>
      <point x="433" y="7"/>
      <point x="504" y="61" type="curve"/>
      <point x="464" y="137" type="line"/>
      <point x="428" y="109"/>
      <point x="377" y="78"/>
      <point x="291" y="78" type="curve" smooth="yes"/>
      <point x="197" y="78"/>
      <point x="150" y="145"/>
      <point x="150" y="274" type="curve" smooth="yes"/>
      <point x="150" y="434"/>
      <point x="201" y="469"/>
      <point x="296" y="469" type="curve" smooth="yes"/>
      <point x="395" y="469"/>
      <point x="419" y="413"/>
    </contour>
  </outline>
</glyph>
<glyph name="h" format="1">
  <advance width="649"/>
  <unicode hex="0068"/>
  <outline>
    <contour>
      <point x="602" y="72" type="line"/>
      <point x="494" y="125" type="line"/>
      <point x="548" y="69" type="line"/>
      <point x="548" y="369" type="line" smooth="yes"/>
      <point x="548" y="509"/>
      <point x="495" y="555"/>
      <point x="384" y="555" type="curve" smooth="yes"/>
      <point x="287" y="555"/>
      <point x="234" y="517"/>
      <point x="228" y="427" type="curve"/>
      <point x="271" y="461" type="line"/>
      <point x="186" y="461" type="line"/>
      <point x="186" y="365" type="line"/>
      <point x="213" y="418"/>
      <point x="288" y="437"/>
      <point x="344" y="437" type="curve" smooth="yes"/>
      <point x="422" y="437"/>
      <point x="454" y="413"/>
      <point x="454" y="376" type="curve" smooth="yes"/>
      <point x="454" y="69" type="line"/>
      <point x="482" y="111" type="line"/>
      <point x="397" y="72" type="line"/>
      <point x="397" y="-1" type="line"/>
      <point x="602" y="-1" type="line"/>
    </contour>
    <contour>
      <point x="261" y="-1" type="line"/>
      <point x="261" y="72" type="line"/>
      <point x="176" y="114" type="line"/>
      <point x="204" y="72" type="line"/>
      <point x="204" y="759" type="line"/>
      <point x="50" y="760" type="line"/>
      <point x="50" y="656" type="line"/>
      <point x="162" y="656" type="line"/>
      <point x="110" y="685" type="line"/>
      <point x="110" y="79" type="line"/>
      <point x="125" y="105" type="line"/>
      <point x="50" y="72" type="line"/>
      <point x="50" y="-1" type="line"/>
    </contour>
  </outline>
</glyph>
<glyph name="i" format="1">
  <advance width="341"/>
  <unicode hex="0069"/>
  <outline>
    <contour>
      <point x="308" y="-1" type="line"/>
      <point x="308" y="72" type="line"/>
      <point x="206" y="107" type="line"/>
      <point x="234" y="72" type="line"/>
      <point x="234" y="539" type="line"/>
      <point x="65" y="539" type="line"/>
      <point x="65" y="435" type="line"/>
      <point x="192" y="435" type="line"/>
      <point x="140" y="464" type="line"/>
      <point x="140" y="79" type="line"/>
      <point x="155" y="98" type="line"/>
      <point x="63" y="72" type="line"/>
      <point x="63" y="-1" type="line"/>
    </contour>
    <contour>
      <point x="164" y="649" type="curve"/>
      <point x="211" y="648"/>
      <point x="240" y="673"/>
      <point x="240" y="728" type="curve" smooth="yes"/>
      <point x="240" y="786"/>
      <point x="211" y="808"/>
      <point x="164" y="808" type="curve"/>
      <point x="115" y="809"/>
      <point x="92" y="784"/>
      <point x="92" y="729" type="curve" smooth="yes"/>
      <point x="92" y="671"/>
      <point x="115" y="649"/>
    </contour>
  </outline>
</glyph>
<glyph name="l" format="1">
  <advance width="331"/>
  <unicode hex="006C"/>
  <outline>
    <contour>
      <point x="303" y="-1" type="line"/>
      <point x="303" y="72" type="line"/>
      <point x="201" y="107" type="line"/>
      <point x="229" y="72" type="line"/>
      <point x="229" y="760" type="line"/>
      <point x="60" y="760" type="line"/>
      <point x="60" y="651" type="line"/>
      <point x="187" y="651" type="line"/>
      <point x="135" y="685" type="line"/>
      <point x="135" y="79" type="line"/>
      <point x="150" y="98" type="line"/>
      <point x="58" y="72" type="line"/>
      <point x="58" y="-1" type="line"/>
    </contour>
  </outline>
</glyph>
<glyph name="m" format="1">
  <advance width="948"/>
  <unicode hex="006D"/>
  <outline>
    <contour>
      <point x="597" y="72" type="line"/>
      <point x="490" y="125" type="line"/>
      <point x="543" y="69" type="line"/>
      <point x="543" y="359" type="line"/>
      <point x="543" y="517"/>
      <point x="497" y="555"/>
      <point x="396" y="555" type="curve" smooth="yes"/>
      <point x="301" y="555"/>
      <point x="252" y="519"/>
      <point x="246" y="429" type="curve"/>
      <point x="262" y="465" type="line"/>
      <point x="191" y="465" type="line"/>
      <point x="191" y="367" type="line"/>
      <point x="218" y="420"/>
      <point x="287" y="438"/>
      <point x="343" y="438" type="curve" smooth="yes"/>
      <point x="421" y="438"/>
      <point x="449" y="414"/>
      <point x="449" y="373" type="curve" smooth="yes"/>
      <point x="449" y="69" type="line"/>
      <point x="477" y="111" type="line"/>
      <point x="392" y="72" type="line"/>
      <point x="392" y="-1" type="line"/>
      <point x="597" y="-1" type="line"/>
    </contour>
    <contour>
      <point x="280" y="-1" type="line"/>
      <point x="280" y="72" type="line"/>
      <point x="195" y="114" type="line"/>
      <point x="223" y="72" type="line"/>
      <point x="223" y="539" type="line"/>
      <point x="69" y="539" type="line"/>
      <point x="69" y="435" type="line"/>
      <point x="181" y="435" type="line"/>
      <point x="129" y="464" type="line"/>
      <point x="129" y="79" type="line"/>
      <point x="144" y="105" type="line"/>
      <point x="69" y="72" type="line"/>
      <point x="69" y="-1" type="line"/>
    </contour>
    <contour>
      <point x="917" y="72" type="line"/>
      <point x="812" y="124" type="line"/>
      <point x="863" y="69" type="line"/>
      <point x="863" y="359" type="line"/>
      <point x="863" y="507"/>
      <point x="814" y="555"/>
      <point x="710" y="555" type="curve" smooth="yes"/>
      <point x="614" y="555"/>
      <point x="567" y="519"/>
      <point x="561" y="429" type="curve"/>
      <point x="582" y="465" type="line"/>
      <point x="506" y="465" type="line"/>
      <point x="504" y="359" type="line"/>
      <point x="531" y="412"/>
      <point x="605" y="438"/>
      <point x="661" y="438" type="curve" smooth="yes"/>
      <point x="739" y="438"/>
      <point x="769" y="414"/>
      <point x="769" y="373" type="curve" smooth="yes"/>
      <point x="769" y="69" type="line"/>
      <point x="797" y="111" type="line"/>
      <point x="712" y="72" type="line"/>
      <point x="712" y="-1" type="line"/>
      <point x="917" y="-1" type="line"/>
    </contour>
  </outline>
</glyph>
<glyph name="n" format="1">
  <advance width="649"/>
  <unicode hex="006E"/>
  <outline>
    <contour>
      <point x="619" y="72" type="line"/>
      <point x="507" y="127" type="line"/>
      <point x="565" y="69" type="line"/>
      <point x="565" y="369" type="line"/>
      <point x="565" y="509"/>
      <point x="512" y="555"/>
      <point x="401" y="555" type="curve" smooth="yes"/>
      <point x="304" y="555"/>
      <point x="251" y="515"/>
      <point x="245" y="425" type="curve"/>
      <point x="280" y="461" type="line"/>
      <point x="204" y="461" type="line"/>
      <point x="204" y="365" type="line"/>
      <point x="231" y="418"/>
      <point x="301" y="438"/>
      <point x="357" y="438" type="curve" smooth="yes"/>
      <point x="435" y="438"/>
      <point x="467" y="415"/>
      <point x="467" y="376" type="curve" smooth="yes"/>
      <point x="467" y="69" type="line"/>
      <point x="495" y="111" type="line"/>
      <point x="410" y="72" type="line"/>
      <point x="410" y="-1" type="line"/>
      <point x="619" y="-1" type="line"/>
    </contour>
    <contour>
      <point x="278" y="-1" type="line"/>
      <point x="278" y="72" type="line"/>
      <point x="193" y="114" type="line"/>
      <point x="221" y="72" type="line"/>
      <point x="221" y="539" type="line"/>
      <point x="63" y="539" type="line"/>
      <point x="63" y="435" type="line"/>
      <point x="175" y="435" type="line"/>
      <point x="123" y="464" type="line"/>
      <point x="123" y="79" type="line"/>
      <point x="138" y="105" type="line"/>
      <point x="63" y="72" type="line"/>
      <point x="63" y="-1" type="line"/>
    </contour>
  </outline>
</glyph>
<glyph name="o" format="1">
  <advance width="596"/>
  <unicode hex="006F"/>
  <outline>
    <contour>
      <point x="298" y="-18" type="curve"/>
      <point x="469" y="-18"/>
      <point x="548" y="60"/>
      <point x="548" y="268" type="curve" smooth="yes"/>
      <point x="548" y="485"/>
      <point x="466" y="558"/>
      <point x="298" y="558" type="curve" smooth="yes"/>
      <point x="128" y="558"/>
      <point x="48" y="481"/>
      <point x="48" y="273" type="curve" smooth="yes"/>
      <point x="48" y="56"/>
      <point x="130" y="-18"/>
    </contour>
    <contour>
      <point x="159" y="313" type="curve" smooth="yes"/>
      <point x="159" y="424"/>
      <point x="197" y="468"/>
      <point x="308" y="468" type="curve" smooth="yes"/>
      <point x="421" y="468"/>
      <point x="437" y="413"/>
      <point x="437" y="227" type="curve" smooth="yes"/>
      <point x="437" y="125"/>
      <point x="414" y="72"/>
      <point x="288" y="72" type="curve" smooth="yes"/>
      <point x="177" y="72"/>
      <point x="159" y="127"/>
    </contour>
  </outline>
</glyph>
<glyph name="p" format="1">
  <advance width="647"/>
  <unicode hex="0070"/>
  <outline>
    <contour>
      <point x="374" y="-12" type="curve" smooth="yes"/>
      <point x="267" y="-12"/>
      <point x="199" y="59"/>
      <point x="194" y="137" type="curve"/>
      <point x="193" y="177" type="line"/>
      <point x="226" y="114"/>
      <point x="274" y="76"/>
      <point x="355" y="76" type="curve" smooth="yes"/>
      <point x="437" y="76"/>
      <point x="497" y="124"/>
      <point x="497" y="279" type="curve" smooth="yes"/>
      <point x="497" y="399"/>
      <point x="454" y="446"/>
      <point x="373" y="446" type="curve" smooth="yes"/>
      <point x="309" y="446"/>
      <point x="256" y="426"/>
      <point x="186" y="383" type="curve"/>
      <point x="210" y="471" type="line"/>
      <point x="281" y="470" type="line"/>
      <point x="248" y="441" type="line"/>
      <point x="248" y="521"/>
      <point x="324" y="555"/>
      <point x="411" y="555" type="curve" smooth="yes"/>
      <point x="529" y="555"/>
      <point x="597" y="479"/>
      <point x="597" y="278" type="curve" smooth="yes"/>
      <point x="597" y="16"/>
      <point x="486" y="-12"/>
    </contour>
    <contour>
      <point x="51" y="-210" type="line"/>
      <point x="51" y="-135" type="line"/>
      <point x="156" y="-115" type="line"/>
      <point x="126" y="-145" type="line"/>
      <point x="126" y="435" type="line"/>
      <point x="66" y="435" type="line"/>
      <point x="66" y="540" type="line"/>
      <point x="224" y="540" type="line"/>
      <point x="224" y="-140" type="line"/>
      <point x="191" y="-103" type="line"/>
      <point x="368" y="-146" type="line"/>
      <point x="368" y="-210" type="line"/>
    </contour>
  </outline>
</glyph>
<glyph name="q" format="1">
  <advance width="620"/>
  <unicode hex="0071"/>
  <outline>
    <contour>
      <point x="240" y="-11" type="curve" smooth="yes"/>
      <point x="137" y="-11"/>
      <point x="44" y="36"/>
      <point x="44" y="284" type="curve"/>
      <point x="44" y="508"/>
      <point x="139" y="554"/>
      <point x="265" y="554" type="curve" smooth="yes"/>
      <point x="376" y="554"/>
      <point x="460" y="465"/>
      <point x="471" y="393" type="curve"/>
      <point x="442" y="378" type="line"/>
      <point x="428" y="429"/>
      <point x="338" y="464"/>
      <point x="279" y="464" type="curve" smooth="yes"/>
      <point x="196" y="464"/>
      <point x="144" y="423"/>
      <point x="144" y="311" type="curve" smooth="yes"/>
      <point x="144" y="136"/>
      <point x="184" y="85"/>
      <point x="280" y="85" type="curve" smooth="yes"/>
      <point x="366" y="85"/>
      <point x="440" y="145"/>
      <point x="473" y="210" type="curve"/>
      <point x="460" y="63" type="line"/>
      <point x="313" y="63" type="line"/>
      <point x="398" y="105" type="line"/>
      <point x="398" y="31"/>
      <point x="346" y="-11"/>
    </contour>
    <contour>
      <point x="278" y="-210" type="line"/>
      <point x="278" y="-146" type="line"/>
      <point x="449" y="-104" type="line"/>
      <point x="421" y="-138" type="line"/>
      <point x="421" y="464" type="line"/>
      <point x="433" y="471" type="line"/>
      <point x="455" y="558" type="line"/>
      <point x="520" y="558" type="line"/>
      <point x="520" y="-140" type="line"/>
      <point x="490" y="-115" type="line"/>
      <point x="595" y="-135" type="line"/>
      <point x="595" y="-210" type="line"/>
    </contour>
  </outline>
</glyph>
<glyph name="r" format="1">
  <advance width="504"/>
  <unicode hex="0072"/>
  <outline>
    <contour>
      <point x="379" y="-1" type="line"/>
      <point x="379" y="73" type="line"/>
      <point x="193" y="105" type="line"/>
      <point x="240" y="72" type="line"/>
      <point x="240" y="539" type="line"/>
      <point x="67" y="539" type="line"/>
      <point x="67" y="435" type="line"/>
      <point x="179" y="435" type="line"/>
      <point x="146" y="464" type="line"/>
      <point x="146" y="79" type="line"/>
      <point x="176" y="100" type="line"/>
      <point x="67" y="72" type="line"/>
      <point x="67" y="-1" type="line"/>
    </contour>
    <contour>
      <point x="480" y="332" type="line"/>
      <point x="505" y="500"/>
      <point x="480" y="555"/>
      <point x="386" y="555" type="curve" smooth="yes"/>
      <point x="313" y="555"/>
      <point x="268" y="520"/>
      <point x="266" y="433" type="curve"/>
      <point x="298" y="461" type="line"/>
      <point x="223" y="461" type="line"/>
      <point x="216" y="383" type="line"/>
      <point x="246" y="417"/>
      <point x="288" y="432"/>
      <point x="328" y="432" type="curve" smooth="yes"/>
      <point x="392" y="432"/>
      <point x="397" y="389"/>
      <point x="403" y="331" type="curve"/>
    </contour>
  </outline>
</glyph>
<glyph name="u" format="1">
  <advance width="646"/>
  <unicode hex="0075"/>
  <outline>
    <contour>
      <point x="9" y="468" type="line"/>
      <point x="131" y="413" type="line"/>
      <point x="73" y="471" type="line"/>
      <point x="73" y="171" type="line"/>
      <point x="73" y="31"/>
      <point x="127" y="-15"/>
      <point x="238" y="-15" type="curve" smooth="yes"/>
      <point x="335" y="-15"/>
      <point x="387" y="24"/>
      <point x="393" y="117" type="curve"/>
      <point x="358" y="81" type="line"/>
      <point x="435" y="70" type="line"/>
      <point x="436" y="174" type="line"/>
      <point x="409" y="121"/>
      <point x="338" y="103"/>
      <point x="282" y="103" type="curve" smooth="yes"/>
      <point x="204" y="103"/>
      <point x="171" y="126"/>
      <point x="171" y="163" type="curve" smooth="yes"/>
      <point x="171" y="540" type="line"/>
      <point x="9" y="541" type="line"/>
    </contour>
    <contour>
      <point x="349" y="541" type="line"/>
      <point x="349" y="468" type="line"/>
      <point x="444" y="424" type="line"/>
      <point x="416" y="468" type="line"/>
      <point x="416" y="1" type="line"/>
      <point x="574" y="1" type="line"/>
      <point x="574" y="72" type="line"/>
      <point x="462" y="115" type="line"/>
      <point x="514" y="76" type="line"/>
      <point x="514" y="541" type="line"/>
    </contour>
  </outline>
</glyph>
<glyph name="Ntilde" format="1">
  <advance width="784"/>
  <unicode hex="00D1"/>
  <outline>
    <contour>
      <point x="265" y="832" type="curve"/>
      <point x="215" y="840" type="line"/>
      <point x="215" y="946"/>
      <point x="227" y="1015"/>
      <point x="338" y="1015" type="curve" smooth="yes"/>
      <point x="398" y="1015"/>
      <point x="426" y="1005"/>
      <point x="452" y="968" type="curve"/>
      <point x="464" y="950"/>
      <point x="471" y="944"/>
      <point x="494" y="944" type="curve" smooth="yes"/>
      <point x="531" y="932"/>
      <point x="547" y="946"/>
      <point x="565" y="963" type="curve"/>
      <point x="590" y="963"/>
      <point x="605" y="976"/>
      <point x="605" y="1012" type="curve"/>
      <point x="655" y="1009" type="line"/>
      <point x="655" y="900"/>
      <point x="642" y="824"/>
      <point x="531" y="824" type="curve" smooth="yes"/>
      <point x="471" y="824"/>
      <point x="446" y="838"/>
      <point x="420" y="875" type="curve"/>
      <point x="406" y="894"/>
      <point x="399" y="900"/>
      <point x="376" y="900" type="curve" smooth="yes"/>
      <point x="340" y="911"/>
      <point x="324" y="895"/>
      <point x="305" y="877" type="curve"/>
      <point x="280" y="877"/>
      <point x="265" y="866"/>
    </contour>
    <component base="N" xOffset="9"/>
  </outline>
</glyph>
<glyph name="ntilde" format="1">
  <advance width="656"/>
  <unicode hex="00F1"/>
  <outline>
    <contour>
      <point x="438" y="629" type="curve" smooth="yes"/>
      <point x="387" y="629"/>
      <point x="368" y="641"/>
      <point x="346" y="671" type="curve"/>
      <point x="339" y="681"/>
      <point x="333" y="689"/>
      <point x="318" y="689" type="curve" smooth="yes"/>
      <point x="292" y="699"/>
      <point x="278" y="691"/>
      <point x="260" y="679" type="curve"/>
      <point x="236" y="679"/>
      <point x="224" y="669"/>
      <point x="224" y="636" type="curve"/>
      <point x="175" y="641" type="line"/>
      <point x="175" y="735"/>
      <point x="188" y="789"/>
      <point x="280" y="789" type="curve" smooth="yes"/>
      <point x="331" y="789"/>
      <point x="354" y="780"/>
      <point x="373" y="751" type="curve"/>
      <point x="381" y="740"/>
      <point x="386" y="733"/>
      <point x="400" y="733" type="curve" smooth="yes"/>
      <point x="427" y="722"/>
      <point x="441" y="729"/>
      <point x="459" y="740" type="curve"/>
      <point x="483" y="740"/>
      <point x="495" y="752"/>
      <point x="495" y="787" type="curve"/>
      <point x="543" y="785" type="line"/>
      <point x="543" y="688"/>
      <point x="530" y="629"/>
    </contour>
    <component base="n" xOffset="30"/>
  </outline>
</glyph>
<glyph name="r.alt" format="1">
  <advance width="554"/>
  <outline>
    <contour>
      <point x="373" y="55" type="line"/>
      <point x="223" y="96" type="line"/>
      <point x="223" y="540" type="line"/>
      <point x="68" y="540" type="line"/>
      <point x="68" y="435" type="line"/>
      <point x="128" y="435" type="line"/>
      <point x="128" y="80" type="line"/>
      <point x="68" y="80" type="line"/>
      <point x="68" y="0" type="line"/>
      <point x="373" y="0" type="line"/>
    </contour>
    <contour>
      <point x="223" y="434" type="line"/>
      <point x="223" y="294" type="line"/>
      <point x="223" y="367"/>
      <point x="265" y="423"/>
      <point x="338" y="423" type="curve"/>
      <point x="401" y="423"/>
      <point x="464" y="383"/>
      <point x="464" y="383" type="curve"/>
      <point x="525" y="485" type="line"/>
      <point x="525" y="485"/>
      <point x="454" y="558"/>
      <point x="354" y="558" type="curve" smooth="yes"/>
      <point x="253" y="558"/>
      <point x="248" y="434"/>
      <point x="248" y="434" type="curve"/>
    </contour>
  </outline>
</glyph>
